<svg width="252" height="280" viewBox="0 0 252 280" fill="none" xmlns="http://www.w3.org/2000/svg">
<path d="M109 263C109 272.389 116.611 280 126 280C135.389 280 143 272.389 143 263H109ZM138.021 4.97918C131.382 -1.65973 120.618 -1.65973 113.979 4.97918L5.79185 113.167C-0.847066 119.805 -0.847066 130.569 5.79185 137.208C12.4308 143.847 23.1946 143.847 29.8335 137.208L126 41.0416L222.167 137.208C228.805 143.847 239.569 143.847 246.208 137.208C252.847 130.569 252.847 119.805 246.208 113.167L138.021 4.97918ZM143 263V17H109L109 263H143Z" fill="#1a002a"/>
</svg>
