<svg width="143" height="252" viewBox="0 0 143 252" fill="none" xmlns="http://www.w3.org/2000/svg">
<path d="M20 143C29.3888 143 37 135.388 37 126C37 116.611 29.3888 109 20 109L20 143ZM4.97918 113.979C-1.65973 120.618 -1.65973 131.381 4.97918 138.02L113.166 246.208C119.805 252.847 130.569 252.847 137.208 246.208C143.847 239.569 143.847 228.805 137.208 222.166L41.0416 126L137.208 29.833C143.847 23.1941 143.847 12.4303 137.208 5.79139C130.569 -0.847524 119.805 -0.847524 113.166 5.79139L4.97918 113.979ZM20 109H17L17 143H20L20 109Z" fill="white"/>
</svg>
