<svg width="143" height="252" viewBox="0 0 143 252" fill="none" xmlns="http://www.w3.org/2000/svg">
<path d="M123 109C113.611 109 106 116.611 106 126C106 135.388 113.611 143 123 143V109ZM138.021 138.02C144.66 131.381 144.66 120.618 138.021 113.979L29.8335 5.79139C23.1946 -0.847524 12.4308 -0.847524 5.79188 5.79139C-0.847033 12.4303 -0.847033 23.1941 5.79188 29.833L101.958 126L5.79188 222.166C-0.847033 228.805 -0.847033 239.569 5.79188 246.208C12.4308 252.847 23.1946 252.847 29.8335 246.208L138.021 138.02ZM123 143H126V109H123V143Z" fill="white"/>
</svg>
