<svg width="482" height="483" viewBox="0 0 482 483" fill="none" xmlns="http://www.w3.org/2000/svg">
<path d="M234.5 479.011V3.17085C160.5 -0.829148 3.00001 76.0107 3 237.011C2.99999 409.116 145 479.011 234.5 479.011Z" fill="url(#paint0_linear_1503_15)"/>
<path d="M234 482.011V0.170982C310.626 -3.82769 475 62.0466 475 225.518C475 404.982 326.676 482.011 234 482.011Z" fill="url(#paint1_linear_1503_15)"/>
<circle cx="241" cy="241.012" r="231" stroke="#262626" stroke-width="20"/>
<circle cx="241" cy="241.012" r="185" stroke="#262626" stroke-width="20"/>
<path d="M145 341.512V132.512L328.5 135.012V169.012H180V226.512H233.5V262.512H180V341.512H145Z" fill="#262626"/>
<path d="M331.125 304.637C331.125 302.053 330.375 299.72 328.875 297.637C327.375 295.553 324.583 293.637 320.5 291.887C316.5 290.053 310.708 288.387 303.125 286.887C296.292 285.387 289.917 283.512 284 281.262C278.167 278.928 273.083 276.137 268.75 272.887C264.5 269.637 261.167 265.803 258.75 261.387C256.333 256.887 255.125 251.762 255.125 246.012C255.125 240.345 256.333 235.012 258.75 230.012C261.25 225.012 264.792 220.595 269.375 216.762C274.042 212.845 279.708 209.803 286.375 207.637C293.125 205.387 300.708 204.262 309.125 204.262C320.875 204.262 330.958 206.137 339.375 209.887C347.875 213.637 354.375 218.803 358.875 225.387C363.458 231.887 365.75 239.303 365.75 247.637H329.75C329.75 244.137 329 241.012 327.5 238.262C326.083 235.428 323.833 233.22 320.75 231.637C317.75 229.97 313.833 229.137 309 229.137C305 229.137 301.542 229.845 298.625 231.262C295.708 232.595 293.458 234.428 291.875 236.762C290.375 239.012 289.625 241.512 289.625 244.262C289.625 246.345 290.042 248.22 290.875 249.887C291.792 251.47 293.25 252.928 295.25 254.262C297.25 255.595 299.833 256.845 303 258.012C306.25 259.095 310.25 260.095 315 261.012C324.75 263.012 333.458 265.637 341.125 268.887C348.792 272.053 354.875 276.387 359.375 281.887C363.875 287.303 366.125 294.428 366.125 303.262C366.125 309.262 364.792 314.762 362.125 319.762C359.458 324.762 355.625 329.137 350.625 332.887C345.625 336.553 339.625 339.428 332.625 341.512C325.708 343.512 317.917 344.512 309.25 344.512C296.667 344.512 286 342.262 277.25 337.762C268.583 333.262 262 327.553 257.5 320.637C253.083 313.637 250.875 306.47 250.875 299.137H285C285.167 304.053 286.417 308.012 288.75 311.012C291.167 314.012 294.208 316.178 297.875 317.512C301.625 318.845 305.667 319.512 310 319.512C314.667 319.512 318.542 318.887 321.625 317.637C324.708 316.303 327.042 314.553 328.625 312.387C330.292 310.137 331.125 307.553 331.125 304.637Z" fill="#262626"/>
<defs>
<linearGradient id="paint0_linear_1503_15" x1="114.75" y1="3.01074" x2="114.75" y2="485.171" gradientUnits="userSpaceOnUse">
<stop offset="0.56" stop-color="#E2DCCA"/>
<stop offset="1" stop-color="#9E998C"/>
</linearGradient>
<linearGradient id="paint1_linear_1503_15" x1="358" y1="0.0136719" x2="358" y2="482.014" gradientUnits="userSpaceOnUse">
<stop offset="0.56" stop-color="#E5E5E5"/>
<stop offset="1" stop-color="#9E998C"/>
</linearGradient>
</defs>
</svg>
